<svg xmlns="http://www.w3.org/2000/svg" data-v-6ad81744="" width="159.3000030517578" height="175.4040641784668" viewBox="0 0 159.3000030517578 175.4040641784668"><svg id="mark" viewBox="0 0 512 512" width="120" height="120" x="19.600841522216797" y="0"><rect x="0" y="0" width="100%" height="100%" fill="none"></rect><g>
<path xmlns="http://www.w3.org/2000/svg" d="M0 0 C0.69630524 -0.00181274 1.39261047 -0.00362549 2.11001587 -0.00549316 C13.91738759 -0.00199006 13.91738759 -0.00199006 18.375 2.375 C21.35024961 2.07747504 23.69741195 1.71379403 26.375 0.375 C66.14058209 -2.39605411 106.41617465 8.54833086 137.05175781 34.8125 C140.42184065 37.77554936 143.68751195 40.83523976 146.90820312 43.95947266 C148.23975386 45.24448117 149.59520198 46.50461123 150.953125 47.76171875 C180.33441717 75.67394631 199.77279134 118.85818475 201.49951172 159.29052734 C202.01727129 180.14562578 199.89820275 199.30082147 194.375 219.375 C194.92542969 219.62378906 195.47585938 219.87257812 196.04296875 220.12890625 C207.60768022 226.30837519 214.76300967 235.86404318 218.8125 248.125 C221.01328417 256.16924559 221.13840154 262.82150612 217.375 270.375 C213.47682274 275.71694661 208.85712804 279.01034146 202.375 280.375 C194.3990426 281.61158254 186.88750323 278.76874214 179.375 276.375 C178.97235941 279.1934956 178.97235941 279.1934956 179.375 282.375 C181.37957539 284.74420422 181.37957539 284.74420422 184.1875 286.6875 C185.19683594 287.45964844 186.20617187 288.23179687 187.24609375 289.02734375 C188.79490234 290.18943359 188.79490234 290.18943359 190.375 291.375 C192.17463596 292.82348748 193.96649583 294.28169539 195.75 295.75 C196.65492188 296.48992187 197.55984375 297.22984375 198.4921875 297.9921875 C201.64127093 300.59508844 204.76094496 303.230412 207.875 305.875 C213.65292823 310.77815176 219.48167178 315.61069254 225.375 320.375 C226.50002886 321.3059547 227.62502743 322.23694602 228.75 323.16796875 C239.17882139 331.70784501 249.03835847 337.38571798 262.41333008 339.90795898 C267.16513846 340.85050794 270.70212698 342.02336952 274.375 345.375 C278.12672932 352.04543843 277.84200396 359.62666548 277.75 367.0625 C277.74057373 368.24569824 277.73114746 369.42889648 277.72143555 370.64794922 C277.17518972 403.07014163 268.6071933 433.75037101 245.375 457.375 C244.653125 458.10976563 243.93125 458.84453125 243.1875 459.6015625 C237.02434435 465.47857164 230.25934054 469.21657032 221.94921875 471.1875 C217.81875081 472.55980847 215.05562812 474.71499669 211.8125 477.5 C190.41972657 495.01806191 162.20257119 505.30478996 134.375 503.375 C127.83328957 502.70229525 121.29049655 502.00082582 114.9375 500.25 C107.95941641 498.53608473 103.15300955 499.08130686 96.6875 502.0625 C90.48541195 504.75410837 84.26754061 506.58594365 77.6875 508.125 C76.84550049 508.32311279 76.00350098 508.52122559 75.13598633 508.7253418 C64.48798341 511.1377075 54.16657229 512.68763083 43.234375 512.7109375 C42.10968811 512.7175943 40.98500122 512.7242511 39.82623291 512.73110962 C37.45643733 512.74117075 35.08661379 512.74592868 32.71679688 512.74560547 C29.17527691 512.74993849 25.63504708 512.78621988 22.09375 512.82421875 C-9.36098637 512.98003916 -41.02033034 507.41700256 -65.625 486.375 C-67.36341849 484.46672077 -69.09228169 482.54970191 -70.8125 480.625 C-75.58303704 475.68505469 -79.80006052 474.03818804 -86.34570312 472.80419922 C-93.27778704 471.45227859 -99.01077855 468.49015525 -105.19921875 465.1796875 C-107.97980226 463.71488752 -110.68386815 462.46597434 -113.625 461.375 C-114.32882813 462.01566406 -115.03265625 462.65632813 -115.7578125 463.31640625 C-132.13903681 477.66601658 -150.66928583 484.01970969 -172.33496094 482.59375 C-189.689568 480.93599649 -208.25283407 472.96538508 -219.87890625 459.828125 C-221.625 457.375 -221.625 457.375 -221.75 454.3125 C-220.2210717 450.32029833 -218.30110876 449.50613822 -214.625 447.375 C-212.0017364 446.31349814 -209.32350675 445.47326933 -206.625 444.625 C-189.29449204 438.8149458 -175.62775179 429.02461491 -164.625 414.375 C-164.05394531 413.61832031 -163.48289062 412.86164063 -162.89453125 412.08203125 C-156.15810776 402.78544682 -149.65665646 392.70912638 -144.625 382.375 C-145.49125 382.065625 -145.49125 382.065625 -146.375 381.75 C-150.77008916 379.06411218 -152.6549328 374.97949272 -153.875 370.125 C-157.10188381 352.46514495 -149.31169387 336.38153656 -142.82275391 320.33789062 C-141.278281 316.51731924 -139.75381735 312.68889873 -138.22924805 308.86035156 C-136.7001024 305.02964813 -135.16270549 301.20227394 -133.625 297.375 C-134.89617676 297.39071045 -136.16735352 297.4064209 -137.47705078 297.42260742 C-142.20696644 297.4770325 -146.93685456 297.51139592 -151.66699219 297.53979492 C-153.71163594 297.55485288 -155.75624755 297.57530357 -157.80078125 297.60131836 C-160.74487252 297.63783311 -163.68853557 297.65475651 -166.6328125 297.66796875 C-167.5424173 297.68345261 -168.45202209 297.69893646 -169.38919067 297.71488953 C-175.28731235 297.71644277 -179.72835155 297.01707364 -184.26953125 292.875 C-188.24947349 287.76363605 -189.08930975 284.01196448 -189.0390625 277.6640625 C-188.30200831 271.80934902 -185.80513343 266.59930195 -183.44189453 261.24609375 C-176.24112395 244.7527567 -173.96995066 231.20020701 -177.46948242 213.43383789 C-178.85646111 206.13470446 -179.21515548 198.78151962 -179.625 191.375 C-183.51627013 189.48951928 -187.40831826 187.60565599 -191.30102539 185.72314453 C-192.61893689 185.08554346 -193.9366526 184.44753752 -195.25415039 183.80908203 C-197.17279626 182.87940624 -199.09222864 181.95136873 -201.01171875 181.0234375 C-201.64689423 180.71508972 -202.2820697 180.40674194 -202.93649292 180.08905029 C-206.03884483 178.59016394 -209.14944331 177.1299183 -212.30712891 175.75097656 C-213.44972168 175.24791992 -214.59231445 174.74486328 -215.76953125 174.2265625 C-217.2851062 173.5780835 -217.2851062 173.5780835 -218.83129883 172.91650391 C-222.5936112 170.84054128 -225.68090806 168.26318387 -227.625 164.375 C-229.37759625 149.95199482 -221.66424948 136.67760785 -213.45703125 125.39453125 C-195.6624284 103.06466679 -171.28195289 87.15809609 -142.625 83.375 C-140.72921794 83.29050832 -138.83338254 83.20720629 -136.9375 83.125 C-131.15715396 82.64533697 -128.41402899 80.62386261 -124.625 76.375 C-124.05265625 75.73820312 -123.4803125 75.10140625 -122.890625 74.4453125 C-121.70737687 73.09976042 -120.53553874 71.74409356 -119.375 70.37890625 C-117.69515423 68.45533286 -115.94849781 66.66186504 -114.125 64.875 C-111.13606799 61.93235676 -108.37847702 58.85144293 -105.640625 55.67578125 C-103.18019691 52.86726934 -100.65523215 50.12039813 -98.125 47.375 C-94.50390073 43.4423362 -90.93540648 39.47285496 -87.43359375 35.43359375 C-84.35271221 31.92684522 -81.1912256 28.49340047 -78.0390625 25.05078125 C-75.97215069 22.75978677 -73.98063552 20.42750543 -72 18.0625 C-61.8105226 6.52857766 -48.62263334 4.06629863 -33.8125 2.125 C-32.54164551 1.95661621 -31.27079102 1.78823242 -29.96142578 1.61474609 C-19.97986567 0.37602069 -10.0525257 -0.00172652 0 0 Z M30.078125 21.3046875 C20.3981801 21.67037431 15.81720508 25.8230771 9.49121094 32.57836914 C7.76138111 34.49068102 6.062104 36.42499891 4.375 38.375 C3.71242187 39.11492188 3.04984375 39.85484375 2.3671875 40.6171875 C1.3342139 41.78512248 0.3144584 42.96488823 -0.69140625 44.15625 C-3.58394557 47.47536582 -6.61168497 50.66568116 -9.625 53.875 C-13.80269962 58.33019923 -17.94461597 62.79669415 -21.92578125 67.4296875 C-24.09357305 69.91143535 -26.33067719 72.32572046 -28.5625 74.75 C-32.60583687 79.1698919 -36.37811153 83.73047687 -40.03125 88.4765625 C-41.625 90.375 -41.625 90.375 -43.625 91.375 C-43.625 92.365 -43.625 93.355 -43.625 94.375 C-42.6863208 94.67567383 -41.7476416 94.97634766 -40.78051758 95.28613281 C25.46943503 116.58751132 90.06371085 147.7112193 141.81640625 195.16015625 C143.30855065 196.57992046 143.30855065 196.57992046 145.375 196.375 C149.43147535 188.07504867 152.29242859 179.74623388 154.625 170.8125 C154.87072754 169.88042725 155.11645508 168.94835449 155.36962891 167.98803711 C158.29723913 156.39966406 159.74724676 145.07781636 159.6875 133.125 C159.68258545 131.9484082 159.6776709 130.77181641 159.67260742 129.55957031 C159.29896678 101.62274708 150.13694554 78.0535618 130.375 58.375 C129.41787109 57.34632812 129.41787109 57.34632812 128.44140625 56.296875 C119.96458994 47.27120008 109.13536268 41.24313654 98.375 35.375 C97.57964844 34.91222656 96.78429687 34.44945312 95.96484375 33.97265625 C75.79943961 22.84078412 52.47338184 21.78231146 30.078125 21.3046875 Z M-29.43554688 23.69946289 C-30.96665218 23.85693416 -32.49894683 24.00327721 -34.03222656 24.13793945 C-43.37204222 24.96542853 -50.29158566 25.84719251 -56.625 33.375 C-57.82132817 34.60568109 -59.02055533 35.83355073 -60.22265625 37.05859375 C-61.38203366 38.30579286 -62.53693743 39.55716444 -63.6875 40.8125 C-64.29819336 41.47282227 -64.90888672 42.13314453 -65.53808594 42.81347656 C-69.05899061 46.63202861 -72.53301265 50.48531772 -75.921875 54.421875 C-78.11865905 56.94112276 -80.37189619 59.40602996 -82.625 61.875 C-88.95949184 68.83334331 -95.09227459 75.75483606 -100.625 83.375 C-90.00891802 86.28012869 -79.35047708 88.90695876 -68.625 91.375 C-68.22539062 90.49199219 -67.82578125 89.60898438 -67.4140625 88.69921875 C-65.58949402 85.30902709 -63.64823611 82.96604614 -61 80.1875 C-57.56732271 76.51105288 -54.27676481 72.79507758 -51.125 68.875 C-48.07151321 65.09039666 -44.91831699 61.45292463 -41.625 57.875 C-37.59652953 53.49326366 -33.79614889 48.98481391 -30.06640625 44.34765625 C-28.23013025 42.1118066 -26.37080276 39.92115616 -24.46484375 37.74609375 C-23.9219873 37.12452393 -23.37913086 36.5029541 -22.81982422 35.86254883 C-21.75532876 34.64791589 -20.68556849 33.43787089 -19.60986328 32.2331543 C-16.8661544 29.0945793 -14.89293146 26.42934372 -13.625 22.375 C-18.89381134 22.375 -24.19969587 23.14190046 -29.43554688 23.69946289 Z M-168.625 117 C-170.83971192 119.11248113 -170.83971192 119.11248113 -170.625 121.375 C-169.90699219 121.08625 -169.18898437 120.7975 -168.44921875 120.5 C-143.8514895 110.70173441 -117.67086855 110.00376339 -92.12890625 116.88671875 C-89.51105774 117.6103312 -89.51105774 117.6103312 -86.625 116.375 C-89.9131735 115.23961357 -93.20610901 114.11867996 -96.5 113 C-97.87671875 112.52433594 -97.87671875 112.52433594 -99.28125 112.0390625 C-110.19213541 108.35087588 -119.97019136 107.03147253 -131.5 107.0625 C-132.68980469 107.04638672 -133.87960938 107.03027344 -135.10546875 107.01367188 C-147.1647013 107.00708213 -159.30130285 108.84176499 -168.625 117 Z M-181.61328125 143.96875 C-188.04155853 151.37285623 -188.04155853 151.37285623 -190.625 160.375 C-189.97128418 160.71644043 -189.31756836 161.05788086 -188.64404297 161.40966797 C-176.99867494 167.52210398 -165.61267133 173.55783367 -155.13671875 181.546875 C-152.69006504 183.52142073 -152.69006504 183.52142073 -149.625 184.375 C-149.35764914 181.44927359 -149.25802809 179.89233576 -150.98828125 177.453125 C-151.63152344 176.84984375 -152.27476562 176.2465625 -152.9375 175.625 C-153.66066406 174.94050781 -154.38382813 174.25601563 -155.12890625 173.55078125 C-157.81136281 171.21255229 -160.58007148 169.01467858 -163.375 166.8125 C-172.13065837 159.69852757 -172.13065837 159.69852757 -172.87109375 153.22265625 C-172.72929686 147.69257769 -170.71665204 144.13828434 -166.8984375 140.2265625 C-153.38681096 129.2222481 -134.69204687 127.36243674 -117.9375 128.875 C-100.1665112 131.07400903 -82.68403714 136.7188003 -65.5 141.5625 C-64.35748779 141.88299316 -63.21497559 142.20348633 -62.0378418 142.53369141 C-56.12603305 144.23203901 -50.46770308 146.12330716 -44.84814453 148.6340332 C-42.33055998 149.4731359 -40.26147318 149.5058661 -37.625 149.375 C-37.295 148.055 -36.965 146.735 -36.625 145.375 C-43.73191825 141.52562376 -50.82413332 138.79761481 -58.5625 136.5 C-59.68422607 136.16266846 -60.80595215 135.82533691 -61.96166992 135.4777832 C-101.63968985 123.6904045 -149.01638074 109.74501712 -181.61328125 143.96875 Z M-150.25 152.25 C-151.91061297 155.2744336 -151.91061297 155.2744336 -151.1875 158.375 C-149.3572907 161.88900186 -147.27986534 164.44067515 -144.625 167.375 C-141.95338516 164.90889399 -139.94770088 162.37630271 -137.9375 159.375 C-134.65475358 154.85172987 -130.82552303 153.13162111 -125.625 151.375 C-128.41920492 147.45896696 -128.41920492 147.45896696 -132.625 145.375 C-140.09530171 144.64261748 -145.25442942 146.77866079 -150.25 152.25 Z M-70.625 152.375 C-70.23639625 156.36512779 -68.71292732 159.78619037 -67.125 163.4375 C-62.61434805 173.83560172 -61.51990918 186.54130109 -65.25 197.4375 C-65.98868227 199.107785 -66.77846549 200.75670374 -67.625 202.375 C-68.00269531 203.11492187 -68.38039062 203.85484375 -68.76953125 204.6171875 C-71.79036939 209.74622385 -75.81361501 213.71115635 -80.125 217.75 C-80.6708374 218.26232178 -81.2166748 218.77464355 -81.77905273 219.30249023 C-85.15972875 222.35854019 -88.41541508 224.51111752 -92.625 226.375 C-92.625 227.035 -92.625 227.695 -92.625 228.375 C-92.0666748 228.57843018 -91.50834961 228.78186035 -90.93310547 228.99145508 C-76.21510071 234.43673409 -62.14857534 240.85837196 -48.125 247.875 C-47.33301208 248.26902008 -46.54102417 248.66304016 -45.72503662 249.06900024 C-19.26430277 262.26786548 6.89966405 277.83663334 28.375 298.375 C29.16519531 299.10203125 29.95539063 299.8290625 30.76953125 300.578125 C37.69098547 307.1437499 43.7660414 314.7212484 45.375 324.375 C45.35448011 329.61783248 44.24200509 333.926199 41.375 338.375 C35.44685453 344.04540002 30.6621565 345.76803932 22.5625 345.75 C21.79131836 345.74838867 21.02013672 345.74677734 20.22558594 345.74511719 C5.69138041 345.45317371 -9.15911329 342.66723085 -22.91796875 338.01171875 C-25.95498268 337.29738503 -27.67204981 337.41529119 -30.625 338.375 C-32.34898038 339.44796772 -32.34898038 339.44796772 -33.9375 340.875 C-37.68842552 343.81717578 -41.65026693 346.19604439 -45.8125 348.5 C-46.81518921 349.05518311 -46.81518921 349.05518311 -47.83813477 349.62158203 C-49.29391644 350.42609735 -50.75007078 351.22993857 -52.20654297 352.03320312 C-56.7818635 354.57166079 -61.32829583 357.16074641 -65.875 359.75 C-66.78016357 360.26191895 -67.68532715 360.77383789 -68.61791992 361.30126953 C-69.4710376 361.78708496 -70.32415527 362.27290039 -71.203125 362.7734375 C-72.33862793 363.41804932 -72.33862793 363.41804932 -73.49707031 364.07568359 C-78.26284021 366.84371329 -78.26284021 366.84371329 -80.63671875 371.6328125 C-80.85972656 372.90898437 -81.08273438 374.18515625 -81.3125 375.5 C-81.43278564 376.17724121 -81.55307129 376.85448242 -81.67700195 377.55224609 C-82.01320643 379.48976634 -82.31995274 381.43233062 -82.625 383.375 C-82.7590625 384.2103125 -82.893125 385.045625 -83.03125 385.90625 C-83.32142164 388.06641664 -83.50140072 390.19890356 -83.625 392.375 C-83.67785156 393.29925781 -83.73070312 394.22351563 -83.78515625 395.17578125 C-84.49060097 419.8050033 -76.33442201 444.43814723 -60.625 463.375 C-59.84382813 464.48681641 -59.84382813 464.48681641 -59.046875 465.62109375 C-58.57765625 466.19988281 -58.1084375 466.77867187 -57.625 467.375 C-56.965 467.375 -56.305 467.375 -55.625 467.375 C-55.13 468.86 -55.13 468.86 -54.625 470.375 C-37.58307698 484.83787829 -16.63129138 491.90431977 5.375 494.375 C6.32117188 494.48585938 7.26734375 494.59671875 8.2421875 494.7109375 C40.63423329 497.95892041 82.15028972 493.69771223 108.41015625 472.98046875 C129.17850682 455.47580975 141.55564453 428.04305179 144.375 401.375 C144.63215592 397.15601022 144.8059304 392.93309967 144.82128906 388.70605469 C144.90354057 384.93377487 145.13707657 382.79374523 147.03515625 379.453125 C150.98660095 375.94366159 154.00365488 375.30173257 159.25 375.58203125 C160.62697327 375.76991978 162.00207512 375.97201273 163.375 376.1875 C164.06078125 376.28353516 164.7465625 376.37957031 165.453125 376.47851562 C168.37680889 376.89419206 171.27957851 377.35596893 174.17578125 377.93359375 C178.96878255 378.59489918 183.72950228 378.60000712 188.5625 378.625 C189.54025391 378.645625 190.51800781 378.66625 191.52539062 378.6875 C206.3211909 378.76573292 219.7777577 373.48846183 230.52734375 363.265625 C235.03056451 359.03380472 235.03056451 359.03380472 236.375 353.375 C233.89911791 351.36963656 233.89911791 351.36963656 230.6875 349.375 C224.04638367 344.96975957 218.04566653 340.05438631 212.04296875 334.82519531 C209.77015724 332.84912676 207.4801579 330.8934685 205.19067383 328.93676758 C203.44136712 327.44080706 201.69498172 325.94149994 199.94921875 324.44140625 C197.47745052 322.31854524 195.00028354 320.20219839 192.51953125 318.08984375 C191.88845459 317.55157959 191.25737793 317.01331543 190.60717773 316.45874023 C189.40338952 315.43218914 188.19853874 314.40688224 186.99243164 313.38305664 C184.59972698 311.34017704 182.29321988 309.2906906 180.1015625 307.03125 C178.53320496 305.1442467 178.53320496 305.1442467 176.375 305.375 C175.9625 306.39078125 175.55 307.4065625 175.125 308.453125 C166.30206698 329.6892979 151.60339352 345.89032319 134.265625 360.71484375 C130.81029067 363.74896997 127.38403263 366.89380534 124.375 370.375 C124.375 371.035 124.375 371.695 124.375 372.375 C123.715 372.375 123.055 372.375 122.375 372.375 C120.99478357 373.77150474 120.99478357 373.77150474 119.6171875 375.63671875 C119.07795654 376.33667969 118.53872559 377.03664063 117.9831543 377.7578125 C117.41121338 378.51835937 116.83927246 379.27890625 116.25 380.0625 C115.66323486 380.83980469 115.07646973 381.61710938 114.47192383 382.41796875 C99.60740894 402.33285662 90.31729296 423.99131486 85.015625 448.22265625 C84.375 450.375 84.375 450.375 82.375 452.375 C79.5 452.75 79.5 452.75 76.375 452.375 C72.46213298 449.34834854 71.1500883 445.79338337 69.8125 441.1875 C69.60343018 440.48117432 69.39436035 439.77484863 69.17895508 439.04711914 C62.15433659 414.47316406 61.48196494 388.95726208 72.375 365.375 C74.64614852 366.45852711 76.43955348 367.429467 78.375 369.0625 C80.27717203 370.6172407 80.27717203 370.6172407 82.5 370.125 C84.41998297 369.3871108 84.41998297 369.3871108 86.375 368.375 C84.99311547 365.16456118 83.45078097 363.32563635 80.75 361.125 C80.11835938 360.60421875 79.48671875 360.0834375 78.8359375 359.546875 C78.11277344 358.96679688 78.11277344 358.96679688 77.375 358.375 C81.0996242 349.4916717 91.69049789 343.48340955 99.20703125 337.78125 C107.26319707 331.66214008 114.96365591 325.26304721 122.375 318.375 C123.08785156 317.72789062 123.80070313 317.08078125 124.53515625 316.4140625 C137.83149093 303.86068293 143.37225608 287.8533114 144 269.9375 C144.10634766 268.56368164 144.10634766 268.56368164 144.21484375 267.16210938 C144.32093654 263.27297094 144.30919493 260.51851662 141.78637695 257.43041992 C139.41624014 255.51202181 136.99130535 253.94208646 134.375 252.375 C133.38048828 251.75616943 132.38597656 251.13733887 131.36132812 250.49975586 C128.61693839 248.8262711 125.85489734 247.19105279 123.07281494 245.58117676 C120.05794985 243.8365043 117.05499388 242.07152446 114.05078125 240.30859375 C113.46310974 239.96442413 112.87543823 239.62025452 112.2699585 239.26565552 C107.79076052 236.63655416 103.37914362 233.91659495 99 231.125 C88.45189692 224.42554842 77.59833524 217.88174692 66.375 212.375 C66.14425781 213.34179688 65.91351563 214.30859375 65.67578125 215.3046875 C62.06483046 229.94648012 56.73401999 242.34537642 43.4375 250.8125 C32.36543377 256.81624712 20.80727869 258.23169171 8.5 255.125 C-5.1924508 250.80106817 -14.75384242 243.12239641 -21.625 230.375 C-27.39648046 216.43003564 -28.84663237 201.77345642 -23.625 187.375 C-20.71396813 180.99247897 -17.21597991 175.64112401 -12.625 170.375 C-12.625 169.715 -12.625 169.055 -12.625 168.375 C-16.88571505 166.6062916 -21.15017458 164.84701705 -25.41796875 163.09545898 C-26.86167586 162.50152682 -28.30442749 161.90526544 -29.74609375 161.30639648 C-37.47397075 158.09814028 -45.22684621 155.03606708 -53.1875 152.44921875 C-54.42628906 152.04662842 -55.66507813 151.64403809 -56.94140625 151.22924805 C-64.28733814 149.43071611 -64.28733814 149.43071611 -70.625 152.375 Z M179.375 153.375 C177.30035316 155.44964684 178.09747503 159.93362526 178 162.8125 C177.16662102 181.36743783 174.09874031 200.59800607 165.09765625 217.078125 C164.12359135 219.43371881 164.12359135 219.43371881 165.15234375 222.05859375 C166.34842867 224.32465879 167.37176133 225.78910272 169.375 227.375 C170.035 227.375 170.695 227.375 171.375 227.375 C178.22051614 207.81964223 189.04941938 175.08929228 180.35400391 155.01831055 C180.03093262 154.47601807 179.70786133 153.93372559 179.375 153.375 Z M-120.625 173.375 C-126.52543774 179.30028169 -129.88452232 183.96722511 -130.0625 192.5625 C-129.90544419 200.28441085 -128.0334627 205.94742443 -122.53515625 211.4765625 C-116.23049121 216.71428423 -110.13950075 218.86748474 -101.94921875 218.6171875 C-93.85113074 217.77335312 -88.03265322 214.41741161 -82.625 208.375 C-78.41141767 202.97449307 -77.94615342 197.34690332 -78.1796875 190.62890625 C-79.22205913 183.01227849 -82.78848676 177.18428259 -88.8828125 172.5546875 C-99.02096567 165.68983939 -110.91645935 165.5255416 -120.625 173.375 Z M-1.5625 197.25 C-6.4055977 203.38382893 -8.22481185 208.81301442 -7.96875 216.6015625 C-6.97301599 224.63532553 -2.86309633 230.41024704 3.375 235.375 C9.94147218 240.36256763 17.41338329 240.39480259 25.375 239.375 C33.81813739 236.81715945 38.60989392 231.76103034 43.1875 224.5 C46.17824241 216.62962524 45.64616842 210.09752309 42.375 202.375 C39.18195032 195.83377273 33.80423422 192.49030373 27.375 189.375 C16.4469275 185.85397075 6.1325907 188.95801547 -1.5625 197.25 Z M187.375 237.375 C186.715 238.695 186.055 240.015 185.375 241.375 C186.05046875 241.88289062 186.7259375 242.39078125 187.421875 242.9140625 C192.32057239 246.69427118 196.37694438 249.92398978 199.375 255.375 C200.35494822 252.80263593 200.54252314 251.75260255 199.40625 249.19140625 C195.90766354 244.04170119 192.67549645 240.6613078 187.375 237.375 Z M-155.625 240.375 C-156.43813676 243.2914905 -157.2505335 246.20818369 -158.0625 249.125 C-158.29259766 249.95 -158.52269531 250.775 -158.75976562 251.625 C-158.98212891 252.42421875 -159.20449219 253.2234375 -159.43359375 254.046875 C-159.63782959 254.7800293 -159.84206543 255.51318359 -160.05249023 256.26855469 C-160.6040563 258.29794147 -161.12255982 260.33295396 -161.625 262.375 C-160.55958984 261.93414062 -160.55958984 261.93414062 -159.47265625 261.484375 C-145.34996497 255.98253093 -135.78889131 257.78776626 -122.1875 263.625 C-118.65353068 265.18010996 -115.13645403 266.7697836 -111.625 268.375 C-110.89313477 268.70709473 -110.16126953 269.03918945 -109.40722656 269.38134766 C-105.8004962 271.01942611 -102.2057719 272.68094279 -98.625 274.375 C-98.625 273.715 -98.625 273.055 -98.625 272.375 C-99.35912109 271.96773682 -100.09324219 271.56047363 -100.84960938 271.14086914 C-110.35626496 265.86592538 -110.35626496 265.86592538 -114.8671875 263.35522461 C-116.10937191 262.66389418 -117.35155939 261.97256929 -118.59375 261.28125 C-119.51389893 260.76909691 -119.51389893 260.76909691 -120.45263672 260.24659729 C-123.82613826 258.37038234 -127.20561592 256.50589463 -130.59375 254.65625 C-137.6148256 250.80279204 -144.17738106 246.76646787 -150.48828125 241.80859375 C-152.61135866 240.09642493 -152.61135866 240.09642493 -155.625 240.375 Z M153.375 262.375 C153.39820313 263.35597656 153.42140625 264.33695312 153.4453125 265.34765625 C153.8522474 290.02270903 148.70927888 308.36094548 131.375 326.375 C130.76527344 327.01308594 130.15554688 327.65117187 129.52734375 328.30859375 C126.74908386 331.15013974 123.88094345 333.83881341 120.875 336.4375 C111.56900602 344.48691163 102.06908029 352.73494609 94.375 362.375 C95.74483503 365.53615776 96.3640638 366.3677092 99.375 368.375 C100.49358398 367.24856079 100.49358398 367.24856079 101.63476562 366.09936523 C104.43519739 363.2806626 107.23907745 360.46541081 110.04394531 357.65112305 C111.25125065 356.43882752 112.45765234 355.2256313 113.66308594 354.01147461 C125.4662614 342.12510927 125.4662614 342.12510927 131.68457031 336.82739258 C139.29695777 330.28694009 146.42450696 323.16016066 151.375 314.375 C151.81199219 313.64410156 152.24898438 312.91320312 152.69921875 312.16015625 C159.8904427 299.18140071 162.47026852 283.05948693 160.375 268.375 C159.16796339 265.29791636 158.81750925 264.58571869 155.75 263.125 C154.96625 262.8775 154.1825 262.63 153.375 262.375 Z M-39.625 264.375 C-38.65339128 267.31585139 -37.67035451 270.24850345 -36.625 273.1640625 C-32.18375635 285.75915192 -31.22056418 298.14720614 -30.625 311.375 C-15.09649069 316.60307978 0.75930272 320.266474 16.875 323.1875 C17.55038818 323.31141113 18.22577637 323.43532227 18.92163086 323.56298828 C22.78118366 324.22871579 26.46126884 324.48975446 30.375 324.375 C29.55323692 317.92644249 25.48344808 314.16005159 21.375 309.375 C20.66730469 308.53195312 19.95960938 307.68890625 19.23046875 306.8203125 C13.8274206 300.57030004 7.88539896 295.43864364 1.375 290.375 C0.29992187 289.50101562 0.29992187 289.50101562 -0.796875 288.609375 C-18.89626776 273.09662105 -18.89626776 273.09662105 -39.625 264.375 Z M-119.625 317.375 C-121.94696293 323.09123072 -124.24006409 328.81838629 -126.50830078 334.55615234 C-127.23130127 336.38119904 -127.95856754 338.20456399 -128.69091797 340.02587891 C-129.6863184 342.5108199 -130.65830351 345.00377484 -131.625 347.5 C-131.92736572 348.24354736 -132.22973145 348.98709473 -132.54125977 349.75317383 C-134.61012999 355.19281826 -135.55661349 360.56412594 -134.625 366.375 C-133.1672918 368.64325523 -131.81901479 369.72948891 -129.625 371.375 C-122.14494421 368.56407593 -115.07395551 365.20791811 -108 361.5 C-106.91968506 360.93627686 -105.83937012 360.37255371 -104.72631836 359.79174805 C-95.074323 354.70544428 -85.66258532 349.24928372 -76.28125 343.68359375 C-72.61108851 341.51400615 -68.91436453 339.42352929 -65.15625 337.41015625 C-64.31376709 336.95729248 -63.47128418 336.50442871 -62.60327148 336.0378418 C-61.03850497 335.20366864 -59.46797628 334.38017995 -57.89086914 333.56958008 C-54.03687323 331.71937853 -54.03687323 331.71937853 -51.92553711 328.24462891 C-51.82635986 327.62765137 -51.72718262 327.01067383 -51.625 326.375 C-56.35220619 323.76751696 -61.21620616 323.24741873 -66.5 322.4375 C-67.60520996 322.26637695 -68.71041992 322.09525391 -69.84912109 321.91894531 C-86.34292331 319.51895296 -103.00619018 318.52003309 -119.625 317.375 Z M256.375 360.375 C256.705 363.015 257.035 365.655 257.375 368.375 C257.705 368.375 258.035 368.375 258.375 368.375 C258.375 365.735 258.375 363.095 258.375 360.375 C257.715 360.375 257.055 360.375 256.375 360.375 Z M241.375 378.375 C240.66601562 379.1071875 239.95703125 379.839375 239.2265625 380.59375 C224.3959097 395.05871547 202.45298924 397.8956732 182.80126953 397.71899414 C176.60146479 397.58680117 170.52475075 397.16809682 164.375 396.375 C164.28935791 396.98496826 164.20371582 397.59493652 164.11547852 398.22338867 C163.72430936 401.00330451 163.33092556 403.78290264 162.9375 406.5625 C162.80279297 407.52220703 162.66808594 408.48191406 162.52929688 409.47070312 C162.39716797 410.40205078 162.26503906 411.33339844 162.12890625 412.29296875 C162.00845947 413.14656982 161.8880127 414.0001709 161.76391602 414.87963867 C161.37177852 417.39566964 160.89234627 419.88197664 160.375 422.375 C167.51093627 429.65406393 174.95942921 433.45414552 185.25 433.875 C201.52881092 433.26269712 215.22229792 424.68643484 226.375 413.375 C235.09341016 403.54347732 241.89253974 391.55057375 243.375 378.375 C242.715 378.375 242.055 378.375 241.375 378.375 Z M-107.83056641 385.15087891 C-111.03714351 389.12528943 -110.6035764 393.15733911 -110.3125 398.0625 C-110.27906494 399.04347656 -110.24562988 400.02445312 -110.21118164 401.03515625 C-109.49051848 416.98759734 -104.02032725 431.11384479 -93.625 443.375 C-92.22571003 441.15221759 -92.22571003 441.15221759 -93.76953125 437.6640625 C-94.58632512 435.3468322 -95.42362576 433.0379338 -96.26757812 430.73046875 C-100.4022851 418.97084651 -100.90194271 407.45529456 -100.75 395.125 C-100.73993849 393.68620423 -100.73081831 392.24740155 -100.72265625 390.80859375 C-100.7009206 387.33058247 -100.66657033 383.85283755 -100.625 380.375 C-103.31466497 380.375 -105.95248385 383.48086625 -107.83056641 385.15087891 Z M79.375 386.375 C78.075625 386.519375 76.77625 386.66375 75.4375 386.8125 C74.70660156 386.89371094 73.97570312 386.97492188 73.22265625 387.05859375 C71.36359771 387.19386614 71.36359771 387.19386614 70.375 388.375 C68.40133676 400.21697944 69.71965818 411.59546934 71.375 423.375 C71.705 423.375 72.035 423.375 72.375 423.375 C72.61283203 421.47041016 72.61283203 421.47041016 72.85546875 419.52734375 C74.1732147 409.61719862 75.94985041 400.51289632 79.484375 391.1484375 C80.7060629 388.45440287 80.7060629 388.45440287 79.375 386.375 Z M256.375 387.375 C254.71949517 392.25438266 253.13410525 397.14516277 251.62890625 402.07324219 C245.85333081 420.91560863 245.85333081 420.91560863 242.16796875 427.546875 C241.06024419 429.54344583 241.06024419 429.54344583 242.375 432.375 C250.94474273 415.77705915 250.94474273 415.77705915 256.1875 397.9375 C256.39209839 396.88852539 256.39209839 396.88852539 256.60083008 395.81835938 C257.18457594 392.53753959 257.44579524 390.58738573 256.375 387.375 Z M-133.625 402.375 C-135.06275326 404.60002195 -136.38643643 406.82155952 -137.6875 409.125 C-143.52775967 419.14806813 -150.23149845 428.16086385 -158.19140625 436.6328125 C-159.83680126 438.25636113 -159.83680126 438.25636113 -159.625 440.375 C-160.285 440.375 -160.945 440.375 -161.625 440.375 C-161.625 441.035 -161.625 441.695 -161.625 442.375 C-162.22570312 442.65085937 -162.82640625 442.92671875 -163.4453125 443.2109375 C-165.89320581 444.40296876 -165.89320581 444.40296876 -168.5 447 C-172.51331748 450.56641968 -177.04023602 453.02808647 -181.73779297 455.57080078 C-184.75732795 457.22196644 -187.37371539 458.74034446 -189.625 461.375 C-175.82558601 468.37149647 -160.613967 472.41339707 -145.375 467.75 C-134.59030416 463.64837366 -125.31959376 457.46250096 -119 447.625 C-117.28172469 444.6077685 -117.28172469 444.6077685 -118.359375 442.4453125 C-119.69302939 440.26371735 -121.09348178 438.13528414 -122.5 436 C-128.64490787 425.77847033 -130.27757868 414.04083197 -131.625 402.375 C-132.285 402.375 -132.945 402.375 -133.625 402.375 Z M220.3125 432.375 C216.32759867 435.9131312 212.10640019 438.31549722 207.375 440.6875 C206.71105225 441.02458984 206.04710449 441.36167969 205.36303711 441.70898438 C194.62598565 446.93049043 182.58838687 448.35682935 170.9375 445.1875 C166.92800132 443.79754046 163.5229372 441.80955263 160.06640625 439.36328125 C158.2697861 438.1227546 158.2697861 438.1227546 155.375 438.375 C155.09414551 438.94307373 154.81329102 439.51114746 154.52392578 440.09643555 C147.50301093 454.18526123 140.48153742 467.40006119 128.5546875 478.0078125 C127.04835906 479.452593 127.04835906 479.452593 127.375 482.375 C158.40587986 483.31248882 182.78963091 478.45439426 206.171875 456.54296875 C213.35174784 449.47766835 222.62756831 439.65988364 224.375 429.375 C222.60237993 429.375 221.51984494 431.1862296 220.3125 432.375 Z M239.375 433.375 C240.375 435.375 240.375 435.375 240.375 435.375 Z " fill="#000000" transform="translate(234.625,-0.375)"></path>
</g></svg><!----><!----><g id="name"><path d="M16.01 130.55Q19 130.55 21.32 131.43Q23.64 132.3 25.71 134.05L22.13 138.33Q20.7 137.22 19.32 136.67Q17.94 136.12 16.38 136.12Q13.16 136.12 11.29 138.83Q9.43 141.55 9.43 147.21Q9.43 152.77 11.29 155.46Q13.16 158.15 16.47 158.15Q18.22 158.15 19.64 157.49Q21.07 156.82 22.72 155.58L26.08 159.9Q24.29 161.7 21.74 162.85Q19.18 164 16.1 164Q11.68 164 8.42 162.06Q5.15 160.13 3.33 156.34Q1.52 152.54 1.52 147.21Q1.52 142.01 3.38 138.24Q5.24 134.46 8.53 132.51Q11.82 130.55 16.01 130.55ZM49.17 163.21L42.87 163.21L42.55 160.13Q39.88 164 35.14 164Q31.79 164 30.06 161.97Q28.34 159.95 28.34 156.31L28.34 138.79L35.6 138.79L35.6 155.39Q35.6 157.19 36.18 157.9Q36.75 158.61 37.95 158.61Q40.25 158.61 41.91 155.76L41.91 138.79L49.17 138.79ZM74.29 156.13Q74.29 157.51 74.68 158.15Q75.07 158.8 75.95 159.12L74.43 163.86Q72.17 163.67 70.75 162.87Q69.32 162.06 68.54 160.32Q66.15 164 61.18 164Q57.55 164 55.38 161.88Q53.22 159.76 53.22 156.36Q53.22 152.36 56.17 150.24Q59.11 148.13 64.68 148.13L67.16 148.13L67.16 147.07Q67.16 144.91 66.24 144.1Q65.32 143.3 63.02 143.3Q61.82 143.3 60.12 143.64Q58.42 143.99 56.63 144.58L54.97 139.8Q57.27 138.93 59.68 138.47Q62.1 138.01 64.17 138.01Q69.41 138.01 71.85 140.17Q74.29 142.33 74.29 146.65L74.29 156.13ZM63.3 158.8Q65.78 158.8 67.16 156.45L67.16 152.13L65.37 152.13Q62.88 152.13 61.66 153Q60.44 153.88 60.44 155.72Q60.44 157.19 61.2 157.99Q61.96 158.8 63.3 158.8ZM87.35 128.3L87.35 163.21L80.09 163.21L80.09 129.08ZM102.44 138.79L95.04 149.51L103.04 163.21L94.85 163.21L87.58 149.87L95.04 138.79ZM120.34 146.01L129.54 163.21L121.3 163.21L115.83 151.07L110.45 163.21L102.44 163.21L111.37 146.29L103.13 131.34L111.32 131.34L115.92 141.55L120.75 131.34L128.75 131.34ZM141.22 131.34Q148.72 131.34 153.25 134.72Q157.78 138.1 157.78 147.11Q157.78 155.99 153.36 159.6Q148.95 163.21 141.91 163.21L132.34 163.21L132.34 131.34L141.22 131.34ZM139.89 136.81L139.89 157.74L142.37 157.74Q146.1 157.74 148.03 155.42Q149.96 153.09 149.96 147.11Q149.96 143.02 148.99 140.77Q148.03 138.51 146.37 137.66Q144.72 136.81 142.28 136.81Z"></path></g><!----><!----></svg>